<?xml version="1.0" encoding="utf-8"?>
<!-- Generator: Adobe Illustrator 16.0.4, SVG Export Plug-In . SVG Version: 6.00 Build 0)  -->
<!DOCTYPE svg PUBLIC "-//W3C//DTD SVG 1.1//EN" "http://www.w3.org/Graphics/SVG/1.1/DTD/svg11.dtd">
<svg version="1.1" id="Layer_1" xmlns="http://www.w3.org/2000/svg" xmlns:xlink="http://www.w3.org/1999/xlink" x="0px" y="0px"
	 width="80px" height="80px" viewBox="0 0 80 80" enable-background="new 0 0 80 80" xml:space="preserve">
<path d="M77.192,38.75l-19.949-0.603l-5.796,13.868c-0.428,1.127-1.574,1.764-2.709,1.605c-1.312-0.094-2.35-1.187-2.35-2.523
	V29.076L32.481,65.29c-0.137,0.352-0.339,0.652-0.593,0.905c-0.013,0.01-0.022,0.017-0.033,0.026
	c-0.035,0.039-0.073,0.073-0.116,0.106c-0.44,0.381-1.021,0.615-1.653,0.615c-1.396,0-2.532-1.137-2.532-2.535V41.436L26,45.151
	c-0.428,1.131-1.577,1.772-2.729,1.605L1.187,45.173C0.533,45.173,0,44.643,0,43.984c0-0.652,0.533-1.182,1.187-1.182l20.749-1.047
	l5.771-13.822c0.5-1.307,1.962-1.965,3.27-1.466c0.84,0.32,1.41,1.043,1.579,1.863c0.04,0.188,0.064,0.38,0.064,0.577v21.884
	l13.869-36.109c0.449-1.176,1.683-1.821,2.879-1.573c1.188,0.205,2.094,1.243,2.094,2.49v23.256l1.691-4.058
	c0.409-1.068,1.47-1.703,2.558-1.622l21.483-0.034c1.551,0,2.808,1.255,2.808,2.801C79.957,37.494,78.743,38.75,77.192,38.75z"/>
</svg>
