<?xml version="1.0" encoding="utf-8"?>
<!-- Generator: Adobe Illustrator 16.0.4, SVG Export Plug-In . SVG Version: 6.00 Build 0)  -->
<!DOCTYPE svg PUBLIC "-//W3C//DTD SVG 1.1//EN" "http://www.w3.org/Graphics/SVG/1.1/DTD/svg11.dtd">
<svg version="1.1" id="Layer_1" xmlns="http://www.w3.org/2000/svg" xmlns:xlink="http://www.w3.org/1999/xlink" x="0px" y="0px"
	 width="80px" height="80px" viewBox="0 0 80 80" enable-background="new 0 0 80 80" xml:space="preserve">
<g>
	<path d="M54.136,45.562h-3.979l4.756-6.663c0.228-0.314,0.316-0.503,0.316-0.9c0-0.82-0.713-0.944-0.986-0.944H47.39
		c-0.754,0-1.362,0.484-1.362,1.32c0,0.84,0.608,1.32,1.362,1.32h3.499l-4.732,6.664c-0.108,0.166-0.274,0.48-0.274,0.818
		c0,0.69,0.567,1.024,1.234,1.024h7.02c0.755,0,1.363-0.48,1.363-1.32C55.499,46.046,54.891,45.562,54.136,45.562z"/>
	<path d="M33.599,45.438h-6.075l6.703-9.304c0.272-0.356,0.462-0.878,0.462-1.342c0-0.73-0.547-1.507-1.761-1.507h-7.667
		c-0.797,0-1.467,0.626-1.467,1.426c0,0.857,0.628,1.339,1.467,1.339h5.51l-6.746,9.429c-0.275,0.378-0.42,0.799-0.42,1.215
		c0,0.883,0.651,1.509,1.759,1.509h8.236c0.754,0,1.508-0.584,1.508-1.382C35.107,45.921,34.478,45.438,33.599,45.438z"/>
	<path d="M44.061,45.562h-3.98l4.753-6.663c0.229-0.314,0.315-0.503,0.315-0.9c0-0.82-0.712-0.944-0.987-0.944h-6.85
		c-0.756,0-1.364,0.484-1.364,1.32c0,0.84,0.608,1.32,1.364,1.32h3.498l-4.735,6.664c-0.104,0.166-0.274,0.48-0.274,0.818
		c0,0.69,0.569,1.024,1.239,1.024h7.018c0.754,0,1.361-0.48,1.362-1.32C45.42,46.046,44.812,45.562,44.061,45.562z"/>
	<path d="M40-0.191c-22.091,0-40,17.908-40,40.001C0,61.9,17.909,79.809,40,79.809c22.091,0,40-17.908,40-39.999
		C80,17.717,62.091-0.191,40-0.191z M58.396,55.823H20.299c-5.665,0-10.256-6.079-10.256-11.349c0-4.669,3.62-10.354,8.393-11.176
		c-0.042-0.368-0.063-0.742-0.063-1.124c0-6.579,5.74-11.909,12.822-11.909c5.494,0,9.867,1.783,11.992,7.735
		c0.57-2.38,4.042-3.179,5.955-3.448c3.394-0.479,10.41,1.784,11.053,7.562c0.043,0.402-0.045,0.79-0.126,1.171
		c4.864,0.748,8.585,6.463,8.585,11.188C68.653,49.744,64.062,55.823,58.396,55.823z"/>
</g>
</svg>
