<?xml version="1.0" encoding="utf-8"?>
<!-- Generator: Adobe Illustrator 16.0.4, SVG Export Plug-In . SVG Version: 6.00 Build 0)  -->
<!DOCTYPE svg PUBLIC "-//W3C//DTD SVG 1.1//EN" "http://www.w3.org/Graphics/SVG/1.1/DTD/svg11.dtd">
<svg version="1.1" id="Layer_1" xmlns="http://www.w3.org/2000/svg" xmlns:xlink="http://www.w3.org/1999/xlink" x="0px" y="0px"
	 width="80px" height="80px" viewBox="0 0 80 80" enable-background="new 0 0 80 80" xml:space="preserve">
<g>
	<path d="M47.406,43.477H41.59v-5.813c0-0.878-0.712-1.59-1.593-1.59c-0.878,0-1.59,0.712-1.59,1.59v5.813h-5.814
		c-0.879,0-1.592,0.71-1.592,1.591c0,0.879,0.713,1.592,1.592,1.592h5.814v5.816c0,0.88,0.712,1.592,1.59,1.592
		c0.881,0,1.593-0.712,1.593-1.592v-5.816h5.816c0.877,0,1.592-0.711,1.592-1.592S48.283,43.477,47.406,43.477z"/>
	<path d="M40,0C17.909,0,0,17.908,0,40s17.909,40,40,40c22.091,0,40-17.908,40-40S62.092,0,40,0z M46.1,67.161
		c-2.184,0-4.227-0.696-6.101-2.077c-1.87,1.381-3.917,2.077-6.098,2.077c-8.762,0-16.271-13.568-16.27-24.684
		c0-12.359,7.83-16.763,15.158-16.763c1.949,0,3.844,0.451,5.607,1.297c-0.429-2.94-1.764-7.096-5.823-8.864
		c-0.711-0.31-1.036-1.136-0.727-1.845c0.306-0.714,1.136-1.038,1.848-0.727c2.087,0.907,3.595,2.276,4.71,3.81
		c-0.02-2.821,1.053-5.57,3.13-7.647c2.025-2.027,4.727-3.144,7.598-3.144c1.209,0,2.4,0.199,3.541,0.595l0.324,0.115l0.107,0.319
		c1.365,3.936,0.385,8.199-2.547,11.135c-2.027,2.03-4.727,3.15-7.602,3.15c-0.838,0-1.668-0.135-2.478-0.325
		c0.41,1.3,0.642,2.553,0.773,3.622c1.865-0.962,3.881-1.491,5.959-1.491c7.328,0,15.156,4.403,15.156,16.763
		C62.367,53.593,54.859,67.161,46.1,67.161z"/>
</g>
</svg>
