<?xml version="1.0" encoding="utf-8"?>
<!-- Generator: Adobe Illustrator 16.0.4, SVG Export Plug-In . SVG Version: 6.00 Build 0)  -->
<!DOCTYPE svg PUBLIC "-//W3C//DTD SVG 1.1//EN" "http://www.w3.org/Graphics/SVG/1.1/DTD/svg11.dtd">
<svg version="1.1" id="Layer_1" xmlns="http://www.w3.org/2000/svg" xmlns:xlink="http://www.w3.org/1999/xlink" x="0px" y="0px"
	 width="80px" height="80px" viewBox="0 0 80 80" enable-background="new 0 0 80 80" xml:space="preserve">
<path d="M40,0C17.909,0,0,17.908,0,40s17.909,40,40,40c22.092,0,40-17.908,40-40S62.092,0,40,0z M41.273,12.076
	c3.326,0,6.022,2.696,6.022,6.021c0,3.326-2.696,6.021-6.022,6.021c-3.325,0-6.021-2.694-6.021-6.021
	C35.252,14.772,37.948,12.076,41.273,12.076z M58.587,24.118l-1.505,6.023c-0.754,3.011-2.551,3.011-4.799,3.011h-4.986
	c-1.788,3.012-0.949,7.442-1.507,12.044h2.729c3.011,0,7.81,3.011,4.798,9.031l-4.515,9.034c-3.013,6.021-7.527,1.506-6.023-1.506
	l4.518-9.033c0.753-1.506-0.797-1.506-1.505-1.506h-7.431c0,0-3.563,7.913-7.762,13.334c-1.551,2.002-3.268,4.732-5.416,4.732
	c-1.507,0-4.084-2.327-1.34-5.604c5.142-6.135,8.4-12.462,8.4-15.472c0-3.502,0.615-10.879,1.503-15.055h-4.516
	c-1.471,2.943-3.763,7.528-3.763,7.528c-1.665,2.881-5.271,2.663-5.271,0c0-0.366,0-1.172,0.421-2.039l4.85-10.005
	c0.308-0.639,0.762-1.506,3.011-1.506h23.333l2.259-7.527c0.902-3.012,5.27-3.012,5.27,0C59.34,21.108,58.807,22.936,58.587,24.118z
	"/>
</svg>
