<?xml version="1.0" encoding="utf-8"?>
<!-- Generator: Adobe Illustrator 16.0.4, SVG Export Plug-In . SVG Version: 6.00 Build 0)  -->
<!DOCTYPE svg PUBLIC "-//W3C//DTD SVG 1.1//EN" "http://www.w3.org/Graphics/SVG/1.1/DTD/svg11.dtd">
<svg version="1.1" id="Layer_1" xmlns="http://www.w3.org/2000/svg" xmlns:xlink="http://www.w3.org/1999/xlink" x="0px" y="0px"
	 width="80px" height="80px" viewBox="0 0 80 80" enable-background="new 0 0 80 80" xml:space="preserve">
<path fill="#FF008C" d="M40,0C17.909,0,0,17.908,0,40c0,22.091,17.909,39.999,40,39.999c22.091,0,40-17.908,40-39.999
	C80,17.908,62.091,0,40,0z M40,15.062c3.487,0,6.308,2.821,6.308,6.303c0,3.486-2.82,6.31-6.308,6.31s-6.307-2.823-6.307-6.31
	C33.693,17.883,36.513,15.062,40,15.062z M62.117,20.214L47.362,34.975v33.794c0,1.742-1.419,3.151-3.158,3.151
	c-1.74,0-3.155-1.409-3.155-3.151V47.748c0-0.582-0.468-1.053-1.049-1.053c-0.582,0-1.05,0.473-1.05,1.053v21.021
	c0,1.742-1.413,3.151-3.151,3.151c-1.743,0-3.161-1.409-3.161-3.151V34.975L17.883,20.214c-1.231-1.231-1.231-3.229,0-4.461
	c1.232-1.231,3.23-1.231,4.458,0c0,0,7.651,7.804,10.297,10.303c1.503,1.412,4.195,3.719,7.361,3.719s5.86-2.307,7.362-3.719
	c2.645-2.499,10.296-10.303,10.296-10.303c1.229-1.232,3.228-1.232,4.458,0C63.349,16.984,63.349,18.982,62.117,20.214z"/>
</svg>
